<svg xmlns="http://www.w3.org/2000/svg" viewBox="0 0 256 256" role="img" aria-labelledby="title desc">
  <title id="title">Sour cream tub</title>
  <desc id="desc">A playful mobile-game style sour cream container for potato toppings.</desc>
  <defs>
    <linearGradient id="rim" x1="56" y1="35" x2="200" y2="85" gradientUnits="userSpaceOnUse">
      <stop offset="0" stop-color="#fff7cf"/>
      <stop offset=".42" stop-color="#ffffff"/>
      <stop offset="1" stop-color="#b9ebff"/>
    </linearGradient>
    <linearGradient id="tub" x1="61" y1="79" x2="196" y2="207" gradientUnits="userSpaceOnUse">
      <stop offset="0" stop-color="#f5fcff"/>
      <stop offset=".55" stop-color="#d7f3ff"/>
      <stop offset="1" stop-color="#79cae8"/>
    </linearGradient>
    <linearGradient id="label" x1="72" y1="113" x2="184" y2="179" gradientUnits="userSpaceOnUse">
      <stop offset="0" stop-color="#ff5d7d"/>
      <stop offset=".5" stop-color="#f53862"/>
      <stop offset="1" stop-color="#c72351"/>
    </linearGradient>
    <linearGradient id="cream" x1="86" y1="38" x2="164" y2="88" gradientUnits="userSpaceOnUse">
      <stop offset="0" stop-color="#ffffff"/>
      <stop offset=".68" stop-color="#fff8df"/>
      <stop offset="1" stop-color="#eadbaf"/>
    </linearGradient>
    <filter id="shadow" x="-20%" y="-20%" width="140%" height="150%" color-interpolation-filters="sRGB">
      <feDropShadow dx="0" dy="9" stdDeviation="6" flood-color="#164052" flood-opacity=".28"/>
    </filter>
    <filter id="pop" x="-10%" y="-10%" width="120%" height="120%" color-interpolation-filters="sRGB">
      <feDropShadow dx="0" dy="3" stdDeviation="2" flood-color="#0a536b" flood-opacity=".25"/>
    </filter>
  </defs>

  <g filter="url(#shadow)">
    <path d="M61 70c7-22 127-22 134 0l-15 132c-3 18-101 18-104 0L61 70Z" fill="#2b8faf"/>
    <path d="M68 75c7-17 113-17 120 0l-14 124c-2 12-90 12-92 0L68 75Z" fill="url(#tub)"/>
    <path d="M76 86c25 10 78 12 104 0l-6 57c-25 14-67 14-92 0l-6-57Z" fill="#ffffff" opacity=".3"/>

    <ellipse cx="128" cy="70" rx="75" ry="28" fill="#226e8f"/>
    <ellipse cx="128" cy="64" rx="73" ry="27" fill="url(#rim)"/>
    <ellipse cx="128" cy="63" rx="56" ry="15" fill="#daf7ff"/>
    <path d="M82 60c19-13 75-17 94-1-9 9-23 16-42 18-23 3-43-3-52-17Z" fill="url(#cream)"/>
    <path d="M94 59c16 7 44 9 67 1-3-8-18-15-32-14-9-14-35-4-35 13Z" fill="#fffef7"/>
    <path d="M112 55c8-17 31-16 39 0 6 1 12 4 16 8-21 9-57 7-76-3 5-4 12-6 21-5Z" fill="url(#cream)"/>
    <circle cx="146" cy="57" r="5" fill="#ffffff" opacity=".9"/>
    <circle cx="104" cy="64" r="4" fill="#ffffff" opacity=".85"/>

    <path d="M75 121c20-13 87-16 108 0l-7 56c-23 13-72 13-96 0l-5-56Z" fill="#ffffff" filter="url(#pop)"/>
    <path d="M83 126c18-9 72-12 91 0l-5 45c-22 10-57 10-80 0l-6-45Z" fill="url(#label)"/>
    <path d="M91 130c18-6 54-8 74-1l-2 12c-22-5-48-4-70 2l-2-13Z" fill="#ff9bb0" opacity=".55"/>

    <g fill="#ffffff" stroke="#7b1730" stroke-linejoin="round" stroke-width="2.5">
      <path d="M93 145c0-7 5-11 13-11 4 0 8 1 11 4l-5 7c-2-2-4-3-7-3-2 0-4 1-4 3 0 5 17 2 17 14 0 8-6 12-14 12-6 0-11-2-15-6l5-7c3 3 6 5 10 5 3 0 5-1 5-3 0-5-16-2-16-15Z"/>
      <path d="M121 135h10v13h13v-13h10v35h-10v-13h-13v13h-10v-35Z"/>
      <path d="M158 135h14c9 0 15 5 15 13 0 7-4 11-10 13l11 9h-14l-9-8v8h-7v-35Zm10 8v10h4c3 0 5-2 5-5s-2-5-5-5h-4Z"/>
    </g>

    <path d="M89 184c24 9 55 10 80 0l-3 18c-3 8-72 8-76 0l-1-18Z" fill="#68bad9" opacity=".8"/>
    <path d="M89 197c27 10 52 10 79 0" fill="none" stroke="#ffffff" stroke-linecap="round" stroke-width="5" opacity=".55"/>
    <path d="M64 79c14 19 118 20 128 0" fill="none" stroke="#ffffff" stroke-linecap="round" stroke-width="5" opacity=".65"/>

    <g transform="rotate(-8 188 95)">
      <path d="M177 91c0-11 9-20 20-20s20 9 20 20-9 20-20 20c-3 0-6-1-9-2l-13 7 4-14c-1-3-2-7-2-11Z" fill="#ffe66d" stroke="#8f5c00" stroke-linejoin="round" stroke-width="5"/>
      <path d="M188 90h17" stroke="#8f5c00" stroke-linecap="round" stroke-width="5"/>
      <path d="M196 82v17" stroke="#8f5c00" stroke-linecap="round" stroke-width="5"/>
    </g>

    <g transform="translate(103 93)">
      <path d="M10 16c5-12 25-12 30 0 6 1 11 5 11 11 0 10-13 16-26 16S-1 37-1 27c0-6 5-10 11-11Z" fill="#fffdf2" stroke="#d6bf82" stroke-linejoin="round" stroke-width="4"/>
      <circle cx="33" cy="18" r="4" fill="#ffffff"/>
      <circle cx="17" cy="30" r="3" fill="#eee0b7"/>
    </g>
  </g>
</svg>
